# xmcd
#
# Track frame offsets:
#	150
#	16814
#	34066
#	48874
#	70110
#	84955
#	98952
#	120145
#	136217
#	152694
#
# Disc length: 2356 seconds
#
# Revision: 4293328902
# Processed by: cddbd v1.5.2PL0 Copyright (c) Steve Scherf et al.
# Submitted via: EZCDAudioConverter 9.0.7.1
#
DISCID=6a09320a
DTITLE=Juanita du Plessis - Volmaakte Kring [CD2)
DYEAR=2007
DGENRE=Country
TTITLE0=Wave on Wave
TTITLE1=A Soft Place to Fall
TTITLE2=I Can’t Dance
TTITLE3=Commitment
TTITLE4=Missing You
TTITLE5=I Don’t Wanna Play House
TTITLE6=It Feels Like Home
TTITLE7=There Goes My Everything
TTITLE8=To Love Somebody
TTITLE9=Country Medley (dance mix)
EXTD=
EXTT0=
EXTT1=
EXTT2=
EXTT3=
EXTT4=
EXTT5=
EXTT6=
EXTT7=
EXTT8=
EXTT9=
PLAYORDER=
